<svg width="1280" height="622" viewBox="0 0 1280 622" fill="none" xmlns="http://www.w3.org/2000/svg">
<path d="M1449.48 583.289C1740.93 468.815 1782.46 -143.712 1704.43 -316.01C1673.98 -358.664 1457.98 -259.536 1179.92 -249.462L962.564 -259.536L-173.258 -365C-272.136 -355.405 -406.27 -265.956 -378.223 -211.533C-357.613 -171.54 -174.257 139.388 120.694 139.388C415.646 139.388 651.607 -171.042 925.063 64.9048C1139.39 249.83 982.945 766.528 1449.48 583.289Z" fill="#1F1F20"/>
<path d="M1449.48 583.289C1740.93 468.815 1782.46 -143.712 1704.43 -316.01C1673.98 -358.664 1457.98 -259.536 1179.92 -249.462L962.564 -259.536L-173.258 -365C-272.136 -355.405 -406.27 -265.956 -378.223 -211.533C-357.613 -171.54 -174.257 139.388 120.694 139.388C415.646 139.388 651.607 -171.042 925.063 64.9048C1139.39 249.83 982.945 766.528 1449.48 583.289Z" fill="url(#paint0_linear_1_165)"/>
<defs>
<linearGradient id="paint0_linear_1_165" x1="678.5" y1="-365" x2="678.5" y2="622" gradientUnits="userSpaceOnUse">
<stop stop-color="#FEC874"/>
<stop offset="1" stop-color="#F58879"/>
</linearGradient>
</defs>
</svg>
