<svg width="16" height="15" viewBox="0 0 16 15" fill="none" xmlns="http://www.w3.org/2000/svg">
<path d="M12.6402 10.9132C10.022 13.4641 5.97806 13.4641 3.36005 10.9132L2.3739 5.67498L4.88616 6.56457C5.32396 6.71981 5.80534 6.54419 6.06142 6.13623L8.00013 3.04696L9.93884 6.13623C10.1947 6.54419 10.6761 6.7196 11.1141 6.56457L13.6264 5.67498L12.6402 10.9132Z" fill="#F1EEE7"/>
<path fill-rule="evenodd" clip-rule="evenodd" d="M14.6523 3.01956L11.2085 4.23896L8.85174 0.483715C8.44753 -0.160176 7.55394 -0.1623 7.14852 0.483715L4.7918 4.23896L1.34797 3.01956C0.604514 2.75602 -0.133548 3.44557 0.0205817 4.26424C1.54169 12.0215 1.30679 11.8172 1.69562 12.2305C5.17182 15.9231 10.828 15.9233 14.3044 12.2305C14.6933 11.8174 14.4616 12.006 15.9795 4.26424C16.1328 3.45024 15.4007 2.75453 14.6523 3.01956ZM3.36005 10.9132C5.97806 13.4641 10.022 13.4641 12.6402 10.9132L13.6264 5.67498L11.1141 6.56457C10.6761 6.7196 10.1947 6.54419 9.93884 6.13623L8.00013 3.04696L6.06142 6.13623C5.80534 6.54419 5.32396 6.71981 4.88616 6.56457L2.3739 5.67498L3.36005 10.9132Z" fill="#F1EEE7"/>
</svg>
